<?xml version="1.0" encoding="UTF-8"?>
<svg width="140px" height="47px" viewBox="0 0 140 47" version="1.1" xmlns="http://www.w3.org/2000/svg" xmlns:xlink="http://www.w3.org/1999/xlink">
    <!-- Generator: Sketch 54.1 (76490) - https://sketchapp.com -->
    <title>Group 3</title>
    <desc>Created with Sketch.</desc>
    <defs>
        <filter x="-68.2%" y="-300.0%" width="236.4%" height="700.0%" filterUnits="objectBoundingBox" id="filter-1">
            <feGaussianBlur stdDeviation="5" in="SourceGraphic"></feGaussianBlur>
        </filter>
        <filter x="-66.8%" y="-300.6%" width="233.6%" height="701.3%" filterUnits="objectBoundingBox" id="filter-2">
            <feGaussianBlur stdDeviation="5" in="SourceGraphic"></feGaussianBlur>
        </filter>
        <linearGradient x1="100%" y1="86.6150415%" x2="4.16744088%" y2="86.6150415%" id="linearGradient-3">
            <stop stop-color="#BBDDF1" offset="0%"></stop>
            <stop stop-color="#2E9DE5" offset="100%"></stop>
        </linearGradient>
        <linearGradient x1="50%" y1="100%" x2="53.5613909%" y2="20.1782359%" id="linearGradient-4">
            <stop stop-color="#3588C5" offset="0%"></stop>
            <stop stop-color="#87C4EC" offset="100%"></stop>
        </linearGradient>
        <linearGradient x1="40.8873432%" y1="129.617502%" x2="61.3029835%" y2="42.288652%" id="linearGradient-5">
            <stop stop-color="#0233B2" offset="0%"></stop>
            <stop stop-color="#193375" offset="21.9165698%"></stop>
            <stop stop-color="#6C64FF" stop-opacity="0" offset="56.6223172%"></stop>
            <stop stop-color="#FFFFFF" stop-opacity="0" offset="100%"></stop>
        </linearGradient>
        <path d="M21.0556172,6.18297769 L20.6802943,16.7219273 C20.4175664,24.0992455 14.105546,29.8708999 6.58200222,29.6132783 C6.39557078,29.6068945 6.20929262,29.5967586 6.02328548,29.5828771 L6.0111088,29.5819684 C3.85833419,29.4213095 2.48202498,28.8028832 0.713707391,27.8309124 C0.418093109,26.2683717 0.301454861,25.0964662 0.363792647,24.3151959 C0.510149655,22.4809249 0.729685167,19.7295185 1.02239918,16.0609766 C1.31694746,12.3694437 2.81354677,9.05226913 5.10623312,6.44975633 L21.0556172,6.18297769 Z" id="path-6"></path>
        <linearGradient x1="26.2682578%" y1="100%" x2="64.263737%" y2="0%" id="linearGradient-7">
            <stop stop-color="#002BAE" offset="0%"></stop>
            <stop stop-color="#1A95E3" offset="100%"></stop>
        </linearGradient>
    </defs>
    <g id="Symbols" stroke="none" stroke-width="1" fill="none" fill-rule="evenodd">
        <g id="Group-3" transform="translate(-4.000000, -10.000000)">
            <g id="Group-2-Copy" transform="translate(15.000000, 18.000000)">
                <ellipse id="Oval" fill="#378FF2" opacity="0.472516741" filter="url(#filter-1)" transform="translate(11.000000, 24.500000) scale(1, -1) translate(-11.000000, -24.500000) " cx="11" cy="24.5" rx="11" ry="2.5"></ellipse>
                <path d="M50.0110937,0.596180082 C54.1547628,0.596180082 57.3469228,3.85948158 57.3469228,7.96998636 C57.3469228,12.0804911 54.1547628,15.3437926 50.0110937,15.3437926 L46.2357507,15.3437926 L46.2357507,22.5607094 L42,22.5607094 L42,0.596180082 L50.0110937,0.596180082 Z M50.0110937,11.2960437 C51.8220306,11.2960437 53.1418659,9.8526603 53.1418659,7.96998636 C53.1418659,6.05593452 51.8220306,4.64392906 50.0110937,4.64392906 L46.2357507,4.64392906 L46.2357507,11.2960437 L50.0110937,11.2960437 Z M63.2060369,9.57025921 C64.0040768,7.43656207 65.9377891,6.5579809 67.8715014,6.5579809 L67.8715014,11.0763984 C65.8150137,10.8253752 63.2060369,11.7667121 63.2060369,15.0613915 L63.2060369,22.5607094 L59.2465308,22.5607094 L59.2465308,6.87175989 L63.2060369,6.87175989 L63.2060369,9.57025921 Z M71.7969032,4.98908595 C70.4770678,4.98908595 69.3720894,3.85948158 69.3720894,2.51023192 C69.3720894,1.16098226 70.4770678,0 71.7969032,0 C73.1474324,0 74.2524108,1.16098226 74.2524108,2.51023192 C74.2524108,3.85948158 73.1474324,4.98908595 71.7969032,4.98908595 Z M69.8324971,22.5607094 L69.8324971,6.87175989 L73.7920031,6.87175989 L73.7920031,22.5607094 L69.8324971,22.5607094 Z M94.0465308,6.4324693 C97.5456292,6.4324693 99.8476676,8.97407913 99.8476676,12.8963165 L99.8476676,22.5607094 L95.8881615,22.5607094 L95.8881615,13.1787176 C95.8881615,11.3274216 94.9673461,10.1978172 93.3098785,10.1978172 C91.5603293,10.1978172 90.4553508,11.3901774 90.4553508,13.7435198 L90.4553508,22.5607094 L86.4958448,22.5607094 L86.4958448,13.1787176 C86.4958448,11.3274216 85.5750294,10.1978172 83.9175617,10.1978172 C82.2294002,10.1978172 81.0323402,11.3901774 81.0323402,13.7435198 L81.0323402,22.5607094 L77.0728342,22.5607094 L77.0728342,6.87175989 L81.0323402,6.87175989 L81.0323402,8.53478854 C81.8917679,7.21691678 83.3343787,6.4324693 85.2987848,6.4324693 C87.2018032,6.4324693 88.6137201,7.24829468 89.4731478,8.69167804 C90.424657,7.27967258 91.9593493,6.4324693 94.0465308,6.4324693 Z M106.228577,16.3792633 C106.781066,18.4502046 108.469228,19.3287858 110.556409,19.3287858 C112.091102,19.3287858 113.318855,18.6698499 113.99412,17.7598909 L117.18628,19.6425648 C115.743669,21.7762619 113.441631,23 110.495022,23 C105.338456,23 102.084908,19.3915416 102.084908,14.7162347 C102.084908,10.0409277 105.369149,6.4324693 110.188083,6.4324693 C114.730772,6.4324693 117.953626,10.1036835 117.953626,14.7162347 C117.953626,15.3124147 117.892238,15.845839 117.800157,16.3792633 L106.228577,16.3792633 Z M106.167189,13.2414734 L113.99412,13.2414734 C113.503018,10.9822647 111.845551,10.0723056 110.188083,10.0723056 C108.070208,10.0723056 106.627597,11.2332879 106.167189,13.2414734 Z M124.334535,9.57025921 C125.132575,7.43656207 127.066288,6.5579809 129,6.5579809 L129,11.0763984 C126.943512,10.8253752 124.334535,11.7667121 124.334535,15.0613915 L124.334535,22.5607094 L120.375029,22.5607094 L120.375029,6.87175989 L124.334535,6.87175989 L124.334535,9.57025921 Z" id="Primer" fill="#233B78" fill-rule="nonzero"></path>
            </g>
            <g id="Group-8">
                <g id="Group-2">
                    <g id="Group-4" transform="translate(15.325726, 39.331378)" fill="#378FF2" opacity="0.472516741">
                        <ellipse id="Oval" filter="url(#filter-2)" transform="translate(11.491478, 3.077224) scale(1, -1) translate(-11.491478, -3.077224) " cx="11.4914784" cy="3.07722398" rx="11.2258065" ry="2.49462366"></ellipse>
                    </g>
                    <g id="Group">
                        <g id="Group-55" transform="translate(29.169410, 29.183547) rotate(-47.000000) translate(-29.169410, -29.183547) translate(8.669410, 8.683547)">
                            <g id="Group-56" transform="translate(0.139973, 0.013046)">
                                <g id="Combined-Shape" transform="translate(0.193606, 0.459325)"></g>
                            </g>
                        </g>
                    </g>
                </g>
                <g id="Group-7" transform="translate(14.000000, 10.000000)">
                    <g id="Group-6" transform="translate(0.180963, 5.622024)" fill="url(#linearGradient-3)">
                        <path d="M0.407749156,0.171898376 L13.7803869,0.171898376 C21.474805,0.171898376 27.713738,6.40685505 27.7186436,14.1012716 L27.726886,27.0293436 C27.7272381,27.5816282 27.2798084,28.0296288 26.7275237,28.0299809 C26.7270902,28.0299812 26.7266567,28.0299812 26.7262232,28.0299809 L14.0676368,28.021588 C6.52202457,28.0165852 0.407749156,21.8982545 0.407749156,14.3526407 L0.407749156,0.171898376 Z" id="Mask" transform="translate(14.067318, 14.100940) rotate(-90.000000) translate(-14.067318, -14.100940) "></path>
                    </g>
                    <g id="Path">
                        <use fill="url(#linearGradient-4)" xlink:href="#path-6"></use>
                        <use fill="url(#linearGradient-5)" xlink:href="#path-6"></use>
                    </g>
                    <path d="M0.383524279,13.6930508 C0.383524279,6.65746307 5.92723279,0.891512388 12.9650291,0.366112155 L14.9788222,0.481737968 L14.3190487,14.4678575 C13.9712634,21.8403372 7.81291392,27.601098 0.383524279,27.6924419 L0.383524279,13.6930508 Z" id="Path" fill="url(#linearGradient-7)"></path>
                </g>
            </g>
        </g>
    </g>
</svg>